:FULLY-SPECIFIED
:FORCE-ALL-JOINTS-BE-3DOF
:DEGREES
510
root 5.90887 16.3171 -5.21058 -171.3 77.9441 -176.265
lfemur -23.9552 -14.9439 -23.1677
ltibia 52.6925 0 0
lfoot -26.6365 -0.995443 0
ltoes 5.07406 0 0
rfemur -58.0425 5.88861 4.61988
rtibia 57.8191 0 0
rfoot 11.8344 8.30198 0
rtoes -17.7297 0 0
lowerback 8.90693 0.439453 -0.863525
upperback 1.44788 0.705296 3.13709
thorax -3.54466 0.410945 3.66174
lowerneck -8.44566 -12.5884 -4.19925
upperneck 11.9103 -16.7405 2.78367
head 5.54499 -8.15383 0.23433
lclavicle 4.85117e-14 -4.9273e-17 0
lhumerus -46.8029 -34.9833 118.389
lradius 56.8888 0 0
lwrist 6.12539 0 0
lhand 6.30691 -0.92801 0
lfingers 7.12502 0 0
lthumb 31.6179 26.3758 0
rclavicle 4.85117e-14 -4.9273e-17 0
rhumerus -12.6483 43.2092 -71.4483
rradius 118.778 0 0
rwrist -22.3359 0 0
rhand 26.8053 -13.4426 0
rfingers 7.12502 0 0
rthumb 50.7436 -753.713 0
511
root 5.96695 16.2865 -5.15521 -169.209 76.4758 -174.196
lfemur -24.0055 -14.2685 -23.3085
ltibia 53.4575 0 0
lfoot -26.837 0.202737 0
ltoes 3.77799 0 0
rfemur -57.7038 5.52326 4.14863
rtibia 56.3534 0 0
rfoot 12.3457 8.25521 0
rtoes -18.3002 0 0
lowerback 9.07423 0.524717 -0.785324
upperback 1.55624 0.845777 3.36207
thorax -3.53628 0.484862 3.83596
lowerneck -8.30179 -12.8701 -4.42898
upperneck 12.0851 -17.1126 2.91015
head 5.62841 -8.33261 0.270671
lclavicle 5.57471e-14 -3.90529e-15 0
lhumerus -46.5329 -34.8628 118.417
lradius 57.0021 0 0
lwrist 6.417 0 0
lhand 5.56759 -1.27097 0
lfingers 7.12502 0 0
lthumb 30.9127 26.1629 0
rclavicle 5.57471e-14 -3.90529e-15 0
rhumerus -9.69367 41.464 -69.2453
rradius 121.001 0 0
rwrist -27.9316 0 0
rhand 29.1091 -13.8418 0
rfingers 7.12502 0 0
rthumb 52.8793 -753.211 0
512
root 6.02504 16.2519 -5.10027 -168.693 75.0753 -173.721
lfemur -24.1735 -13.6461 -23.4015
ltibia 54.3304 0 0
lfoot -27.024 1.18555 0
ltoes 2.59832 0 0
rfemur -57.3378 5.16315 3.64834
rtibia 54.9244 0 0
rfoot 12.7254 8.24372 0
rtoes -19.017 0 0
lowerback 9.22882 0.586354 -0.670043
upperback 1.66754 0.959666 3.58606
thorax -3.51572 0.545763 3.9916
lowerneck -8.16919 -13.133 -4.64105
upperneck 12.2435 -17.4605 3.03047
head 5.70154 -8.49947 0.304551
lclavicle 5.60573e-14 -7.15625e-15 0
lhumerus -46.2895 -34.669 118.396
lradius 57.1515 0 0
lwrist 6.82495 0 0
lhand 4.68514 -1.62149 0
lfingers 7.12502 0 0
lthumb 30.0696 25.9532 0
rclavicle 5.60573e-14 -7.15625e-15 0
rhumerus -7.02353 39.6445 -67.6231
rradius 123.01 0 0
rwrist -32.4975 0 0
rhand 30.0326 -14.0088 0
rfingers 7.12502 0 0
rthumb 53.7363 -753.024 0
513
root 6.08233 16.2137 -5.04612 -169.262 73.7011 -174.386
lfemur -24.5036 -13.0694 -23.4487
ltibia 55.3225 0 0
lfoot -27.1849 1.99241 0
ltoes 1.51406 0 0
rfemur -56.944 4.76417 3.11425
rtibia 53.4744 0 0
rfoot 12.9718 8.27745 0
rtoes -19.9079 0 0
lowerback 9.34994 0.618202 -0.505824
upperback 1.77184 1.03918 3.81192
thorax -3.48125 0.589357 4.1258
lowerneck -8.04957 -13.3777 -4.83702
upperneck 12.3793 -17.7839 3.14149
head 5.76398 -8.65467 0.33515
lclavicle 4.73511e-14 -1.03948e-14 0
lhumerus -46.0702 -34.3833 118.322
lradius 57.3466 0 0
lwrist 7.36366 0 0
lhand 3.62291 -1.99223 0
lfingers 7.12502 0 0
lthumb 29.0538 25.7445 0
rclavicle 4.73511e-14 -1.03948e-14 0
rhumerus -4.60335 37.5755 -66.5844
rradius 124.805 0 0
rwrist -36.074 0 0
rhand 29.474 -13.8371 0
rfingers 7.12502 0 0
rthumb 53.2277 -753.149 0
514
root 6.13848 16.1725 -4.99289 -169.628 72.2875 -174.914
lfemur -24.9885 -12.5053 -23.4681
ltibia 56.4165 0 0
lfoot -27.3188 2.72728 0
ltoes 0.474456 0 0
rfemur -56.5149 4.29513 2.54993
rtibia 51.9711 0 0
rfoot 13.1333 8.35947 0
rtoes -20.9581 0 0
lowerback 9.42878 0.625219 -0.297413
upperback 1.86534 1.09029 4.0433
thorax -3.43243 0.618469 4.24415
lowerneck -7.93626 -13.6105 -5.02332
upperneck 12.4887 -18.0911 3.24543
head 5.81843 -8.80233 0.363573
lclavicle 3.09848e-14 -1.41838e-14 0
lhumerus -45.863 -34.0074 118.198
lradius 57.5829 0 0
lwrist 8.01062 0 0
lhand 2.38288 -2.39366 0
lfingers 7.12502 0 0
lthumb 27.8677 25.5312 0
rclavicle 3.09848e-14 -1.41838e-14 0
rhumerus -2.32225 35.1184 -65.9647
rradius 126.431 0 0
rwrist -39.0248 0 0
rhand 27.7759 -13.3833 0
rfingers 7.12502 0 0
rthumb 51.672 -753.518 0
515
root 6.19428 16.128 -4.94022 -169.855 70.8564 -175.338
lfemur -25.5754 -11.9495 -23.464
ltibia 57.593 0 0
lfoot -27.4396 3.38478 0
ltoes -0.515914 0 0
rfemur -56.0483 3.79396 1.96207
rtibia 50.4678 0 0
rfoot 13.2301 8.47975 0
rtoes -22.1311 0 0
lowerback 9.48538 0.616198 -0.0599273
upperback 1.95777 1.12398 4.27836
thorax -3.3711 0.638981 4.35197
lowerneck -7.82486 -13.8333 -5.2006
upperneck 12.5774 -18.3852 3.34659
head 5.86636 -8.94368 0.391155
lclavicle 9.81988e-15 -1.80679e-14 0
lhumerus -45.6662 -33.5629 118.031
lradius 57.8477 0 0
lwrist 8.74117 0 0
lhand 1.00701 -2.81546 0
lfingers 7.12502 0 0
lthumb 26.5512 25.3136 0
rclavicle 9.81988e-15 -1.80679e-14 0
rhumerus -0.177443 32.4181 -65.699
rradius 127.903 0 0
rwrist -41.4408 0 0
rhand 25.1811 -12.7884 0
rfingers 7.12502 0 0
rthumb 49.2861 -754.106 0
516
root 6.25055 16.0799 -4.88776 -170.011 69.43 -175.691
lfemur -26.2114 -11.3979 -23.4408
ltibia 58.8326 0 0
lfoot -27.5612 3.95955 0
ltoes -1.45247 0 0
rfemur -55.5418 3.29858 1.35735
rtibia 49.0174 0 0
rfoot 13.282 8.62828 0
rtoes -23.3903 0 0
lowerback 9.5398 0.599927 0.191514
upperback 2.0589 1.15125 4.51527
thorax -3.29905 0.65678 4.4546
lowerneck -7.71095 -14.0478 -5.3695
upperneck 12.6511 -18.6693 3.44932
head 5.9092 -9.07998 0.419233
lclavicle -1.32823e-14 -2.15916e-14 0
lhumerus -45.4781 -33.0713 117.829
lradius 58.1285 0 0
lwrist 9.53064 0 0
lhand -0.462733 -3.2473 0
lfingers 7.12502 0 0
lthumb 25.1441 25.0921 0
rclavicle -1.32823e-14 -2.15916e-14 0
rhumerus 1.83382 29.6197 -65.7225
rradius 129.238 0 0
rwrist -43.4128 0 0
rhand 21.9326 -12.1934 0
rfingers 7.12502 0 0
rthumb 46.2871 -754.891 0
517
root 6.30806 16.0278 -4.83515 -170.161 68.0304 -176.004
lfemur -26.8438 -10.8463 -23.4029
ltibia 60.116 0 0
lfoot -27.6972 4.44624 0
ltoes -2.33063 0 0
rfemur -54.9932 2.84693 0.742456
rtibia 47.6729 0 0
rfoot 13.3092 8.79503 0
rtoes -24.699 0 0
lowerback 9.61209 0.585198 0.441792
upperback 2.17845 1.18307 4.7522
thorax -3.2181 0.67775 4.55733
lowerneck -7.5901 -14.2561 -5.53069
upperneck 12.7152 -18.9466 3.55794
head 5.94842 -9.21245 0.449141
lclavicle -3.54604e-14 -2.42992e-14 0
lhumerus -45.2968 -32.554 117.597
lradius 58.4125 0 0
lwrist 10.3544 0 0
lhand -1.9844 -3.67886 0
lfingers 7.12502 0 0
lthumb 23.6864 24.867 0
rclavicle -3.54604e-14 -2.42992e-14 0
rhumerus 3.71432 26.8683 -65.9703
rradius 130.451 0 0
rwrist -45.0319 0 0
rhand 18.2731 -11.7394 0
rfingers 7.12502 0 0
rthumb 42.8923 -755.849 0
518
root 6.36761 15.9716 -4.78203 -170.372 66.6794 -176.311
lfemur -27.4197 -10.2907 -23.3545
ltibia 61.4239 0 0
lfoot -27.8616 4.83948 0
ltoes -3.14581 0 0
rfemur -54.4002 2.47694 0.12407
rtibia 46.4874 0 0
rfoot 13.3317 8.96997 0
rtoes -26.0207 0 0
lowerback 9.7223 0.580802 0.675788
upperback 2.32619 1.23045 4.98731
thorax -3.13007 0.707775 4.6655
lowerneck -7.4579 -14.4598 -5.68481
upperneck 12.7753 -19.2202 3.67678
head 5.98547 -9.34235 0.482216
lclavicle -5.38531e-14 -2.57353e-14 0
lhumerus -45.1207 -32.0327 117.344
lradius 58.687 0 0
lwrist 11.1876 0 0
lhand -3.51604 -4.09981 0
lfingers 7.12502 0 0
lthumb 22.2178 24.6388 0
rclavicle -5.38531e-14 -2.57353e-14 0
rhumerus 5.46681 24.3089 -66.3775
rradius 131.558 0 0
rwrist -46.3888 0 0
rhand 14.4457 -11.5674 0
rfingers 7.12502 0 0
rthumb 39.3187 -756.956 0
519
root 6.43001 15.9108 -4.72806 -170.709 65.3993 -176.644
lfemur -27.8863 -9.72688 -23.3002
ltibia 62.7368 0 0
lfoot -28.0681 5.13391 0
ltoes -3.89343 0 0
rfemur -53.7605 2.22653 -0.491125
rtibia 45.5139 0 0
rfoot 13.3695 9.14308 0
rtoes -27.3187 0 0
lowerback 9.89047 0.595528 0.878385
upperback 2.51185 1.30437 5.21878
thorax -3.03676 0.75274 4.78442
lowerneck -7.30993 -14.6609 -5.83251
upperneck 12.8371 -19.4934 3.81017
head 6.02179 -9.4709 0.519792
lclavicle -6.55989e-14 -2.54444e-14 0
lhumerus -44.9481 -31.5289 117.074
lradius 58.9395 0 0
lwrist 12.0058 0 0
lhand -5.01569 -4.49983 0
lfingers 7.12502 0 0
lthumb 20.7783 24.4077 0
rclavicle -6.55989e-14 -2.54444e-14 0
rhumerus 7.09407 22.0865 -66.8792
rradius 132.574 0 0
rwrist -47.5745 0 0
rhand 10.6931 -11.8183 0
rfingers 7.12502 0 0
rthumb 35.7834 -758.188 0
